<svg xmlns="http://www.w3.org/2000/svg" xmlns:xlink="http://www.w3.org/1999/xlink" width="393" height="479" viewBox="0 0 393 479">
  <defs>
    <linearGradient id="linear-gradient" x1="0.509" y1="0.518" x2="0.312" y2="0.06" gradientUnits="objectBoundingBox">
      <stop offset="0" stop-color="#89b33c"/>
      <stop offset="1" stop-color="#b5c52c"/>
    </linearGradient>
    <linearGradient id="linear-gradient-2" x1="0.648" y1="0.423" x2="0.312" y2="0.06" xlink:href="#linear-gradient"/>
    <linearGradient id="linear-gradient-3" x1="0.291" y1="0.004" x2="0.675" y2="0.841" gradientUnits="objectBoundingBox">
      <stop offset="0" stop-color="#289248"/>
      <stop offset="1" stop-color="#145329"/>
    </linearGradient>
    <clipPath id="clip-path">
      <rect id="Retângulo_5926" data-name="Retângulo 5926" width="393" height="479" fill="#fff" stroke="#707070" stroke-width="1"/>
    </clipPath>
    <linearGradient id="linear-gradient-4" x1="0.5" y1="1" x2="0.5" y2="0" xlink:href="#linear-gradient"/>
    <clipPath id="clip-path-2">
      <path id="Caminho_3794" data-name="Caminho 3794" d="M1035.05,33.76c-56.073,2.106-115.021-9.352-166.3,9.663-82.5,30.591-154.6,219.766-426.677,182.952-86.513-4.663-157.856-98.647-244.644-101.026-93.89-2.573-100.871,53.78-170.763,121.828-4.886,4.751-32.129,30.2-31.839,59.143-3.453,40.5-3.974,155.02-8.948,246.959l1204.841-45.828,105.045-1.994,8.347-274.819c-.019-.044-.038-.1-.061-.143a3.918,3.918,0,0,1-.3-1.217.618.618,0,0,1,.03-.192c-70.919-93.676-90.076-268.215-218.883-263.43Z" transform="translate(14.123 34.442)" fill="url(#linear-gradient)"/>
    </clipPath>
    <clipPath id="clip-path-3">
      <path id="Caminho_3794-2" data-name="Caminho 3794" d="M877.463,23.516c-47.651,1.79-97.745-7.947-141.322,8.212-70.107,26-131.377,186.757-362.59,155.472-73.519-3.962-134.146-83.83-207.9-85.852-79.787-2.187-85.72,45.7-145.114,103.529-4.152,4.038-27.3,25.663-27.057,50.259C-9.453,289.551-9.9,386.872-14.123,465l1023.872-38.945,89.267-1.695,7.093-233.541c-.016-.037-.032-.081-.052-.122a3.33,3.33,0,0,1-.258-1.034.524.524,0,0,1,.026-.163C1045.558,109.9,1029.279-38.427,919.819-34.36Z" fill="url(#linear-gradient-2)"/>
    </clipPath>
    <linearGradient id="linear-gradient-6" x1="0.403" y1="0.298" x2="0.312" y2="0.06" xlink:href="#linear-gradient"/>
    <clipPath id="clip-path-4">
      <path id="Caminho_3794-3" data-name="Caminho 3794" d="M723.026,10.825c-39.23,1.5-80.536-4.512-116.331,6.356C549.106,34.666,499.546,140.189,308.97,121.353c-60.564-2.077-110.935-53.865-171.68-54.672-65.716-.872-70.336,30.476-118.924,68.7-3.4,2.669-22.341,16.968-22,33.046-2.225,22.519-2.048,86.144-5.094,137.25L834.2,273.057l73.5-1.732L912.245,118.6c-.014-.024-.027-.053-.044-.079a1.825,1.825,0,0,1-.218-.674.283.283,0,0,1,.02-.107C861.931,66.121,847.7-30.73,757.583-27.306Z" transform="translate(8.731 27.395)" fill="url(#linear-gradient-3)"/>
    </clipPath>
  </defs>
  <g id="Grupo_de_máscara_492" data-name="Grupo de máscara 492" clip-path="url(#clip-path)">
    <rect id="Retângulo_5927" data-name="Retângulo 5927" width="393" height="479" fill="url(#linear-gradient-4)"/>
    <g id="Grupo_61389" data-name="Grupo 61389">
      <g id="Grupo_59712" data-name="Grupo 59712" transform="matrix(0.961, -0.276, 0.276, 0.961, -437.409, 185.035)" opacity="0.998">
        <g id="Grupo_1282" data-name="Grupo 1282" transform="translate(-14.123 -34.442)" clip-path="url(#clip-path-2)">
          <path id="Caminho_46607" data-name="Caminho 46607" d="M10.954,38.635,1364.989,0l-10.954,522.662L0,561.3Z" transform="translate(-44.278 137.453) rotate(-5.215)" fill="url(#linear-gradient)"/>
        </g>
      </g>
      <g id="Grupo_60533" data-name="Grupo 60533" transform="translate(-341.315 200.168) rotate(-11)" opacity="0.998">
        <g id="Grupo_1282-2" data-name="Grupo 1282" transform="translate(0 0)" clip-path="url(#clip-path-3)">
          <path id="Caminho_46607-2" data-name="Caminho 46607" d="M0,0,1150.657-32.832l-9.308,444.157L-9.308,444.157Z" transform="translate(-39.496 114.215) rotate(-5.215)" fill="url(#linear-gradient-6)"/>
        </g>
      </g>
      <g id="Grupo_56820" data-name="Grupo 56820" transform="matrix(0.995, -0.105, 0.105, 0.995, -213.005, 255.29)" opacity="0.998">
        <g id="Grupo_1282-3" data-name="Grupo 1282" transform="translate(-8.731 -27.395)" clip-path="url(#clip-path-4)">
          <path id="Caminho_46607-3" data-name="Caminho 46607" d="M-.034,6.907l945.4-11.853,1.647,290.85L1.613,297.757Z" transform="translate(-23.44 97.04) rotate(-5.215)" fill="url(#linear-gradient-3)"/>
        </g>
      </g>
    </g>
  </g>
</svg>
